<svg width="345" height="345" viewBox="0 0 345 345" fill="none" xmlns="http://www.w3.org/2000/svg">
<mask id="mask0_0_1" style="mask-type:luminance" maskUnits="userSpaceOnUse" x="40" y="40" width="265" height="265">
<path d="M40.3281 40.8854H304.328V304.885H40.3281V40.8854Z" fill="white"/>
</mask>
<g mask="url(#mask0_0_1)">
<path d="M172.328 304.891C99.401 304.891 40.3281 245.406 40.3281 172.891C40.3281 100.37 99.401 40.8854 172.328 40.8854C245.255 40.8854 304.328 99.9636 304.328 172.891C304.328 245.813 244.849 304.891 172.328 304.891ZM172.328 49.0365C103.885 49.0365 48.474 104.443 48.474 172.891C48.474 241.333 103.885 296.74 172.328 296.74C240.771 296.74 296.182 241.333 296.182 172.891C296.182 104.443 240.365 49.0365 172.328 49.0365Z" fill="black"/>
</g>
<mask id="mask1_0_1" style="mask-type:luminance" maskUnits="userSpaceOnUse" x="47" y="47" width="251" height="251">
<path d="M47.1666 47.724H297.276V297.833H47.1666V47.724Z" fill="white"/>
</mask>
<g mask="url(#mask1_0_1)">
<mask id="mask2_0_1" style="mask-type:luminance" maskUnits="userSpaceOnUse" x="47" y="47" width="251" height="251">
<path d="M172.219 47.724C103.156 47.724 47.1666 103.714 47.1666 172.781C47.1666 241.844 103.156 297.833 172.219 297.833C241.286 297.833 297.276 241.844 297.276 172.781C297.276 103.714 241.286 47.724 172.219 47.724Z" fill="white"/>
</mask>
<g mask="url(#mask2_0_1)">
<mask id="mask3_0_1" style="mask-type:luminance" maskUnits="userSpaceOnUse" x="46" y="47" width="252" height="252">
<path d="M298 47H46V299H298V47Z" fill="white"/>
</mask>
<g mask="url(#mask3_0_1)">
<mask id="mask4_0_1" style="mask-type:luminance" maskUnits="userSpaceOnUse" x="47" y="47" width="251" height="251">
<path d="M47.1666 47.724H297.276V297.833H47.1666V47.724Z" fill="white"/>
</mask>
<g mask="url(#mask4_0_1)">
<mask id="mask5_0_1" style="mask-type:luminance" maskUnits="userSpaceOnUse" x="47" y="47" width="251" height="251">
<path d="M172.219 47.724C103.156 47.724 47.1666 103.714 47.1666 172.781C47.1666 241.844 103.156 297.833 172.219 297.833C241.286 297.833 297.276 241.844 297.276 172.781C297.276 103.714 241.286 47.724 172.219 47.724Z" fill="white"/>
</mask>
<g mask="url(#mask5_0_1)">
<path d="M47.1666 47.724H297.276V297.833H47.1666V47.724Z" fill="#3F3E3E"/>
</g>
</g>
</g>
</g>
</g>
<mask id="mask6_0_1" style="mask-type:luminance" maskUnits="userSpaceOnUse" x="70" y="70" width="205" height="205">
<path d="M70.3281 70.8854H274.328V274.885H70.3281V70.8854Z" fill="white"/>
</mask>
<g mask="url(#mask6_0_1)">
<path d="M172.328 274.885C115.974 274.885 70.3281 228.927 70.3281 172.885C70.3281 116.849 115.974 70.8854 172.328 70.8854C228.682 70.8854 274.328 116.537 274.328 172.885C274.328 229.24 228.365 274.885 172.328 274.885ZM172.328 77.1823C119.438 77.1823 76.625 120 76.625 172.885C76.625 225.776 119.438 268.594 172.328 268.594C225.219 268.594 268.031 225.776 268.031 172.885C268.031 120 224.901 77.1823 172.328 77.1823Z" fill="black"/>
</g>
<mask id="mask7_0_1" style="mask-type:luminance" maskUnits="userSpaceOnUse" x="104" y="105" width="136" height="136">
<path d="M104.693 105.25H239.693V240.25H104.693V105.25Z" fill="white"/>
</mask>
<g mask="url(#mask7_0_1)">
<path d="M172.193 240.25C134.901 240.25 104.693 209.833 104.693 172.75C104.693 135.667 134.901 105.25 172.193 105.25C209.484 105.25 239.693 135.458 239.693 172.75C239.693 210.042 209.276 240.25 172.193 240.25ZM172.193 109.417C137.193 109.417 108.859 137.75 108.859 172.75C108.859 207.75 137.193 236.083 172.193 236.083C207.193 236.083 235.526 207.75 235.526 172.75C235.526 137.75 206.984 109.417 172.193 109.417Z" fill="black"/>
</g>
<g opacity="0.5">
<path d="M183.332 146.017L182.657 156.057C182.43 159.437 178.367 161.022 175.911 158.689L160.738 144.277L162.969 131.826C163.549 128.591 167.568 127.397 169.82 129.791L182.254 143.008C183.016 143.817 183.406 144.907 183.332 146.017Z" fill="white" stroke="black" stroke-width="4"/>
<path d="M163.269 206.382L159.702 204.262C153.304 200.461 149.383 193.569 149.383 186.127C149.383 178.686 153.304 171.794 159.702 167.993L163.269 165.873C172.207 160.561 183.335 160.561 192.273 165.873L195.841 167.993C202.238 171.794 206.159 178.686 206.159 186.127C206.159 193.569 202.238 200.461 195.841 204.262L192.273 206.382C183.335 211.694 172.207 211.694 163.269 206.382Z" fill="white" stroke="black" stroke-width="4"/>
<path d="M183.248 194.48C183.248 193.136 182.158 192.047 180.814 192.047C179.47 192.047 178.381 193.136 178.381 194.48V194.675C178.381 196.018 179.47 197.108 180.814 197.108C182.158 197.108 183.248 196.018 183.248 194.675V194.48Z" fill="black"/>
<path d="M206.865 181.055C206.865 179.711 205.775 178.622 204.431 178.622C203.087 178.622 201.998 179.711 201.998 181.055V181.25C201.998 182.593 203.087 183.683 204.431 183.683C205.775 183.683 206.865 182.593 206.865 181.25V181.055Z" fill="black"/>
<path d="M192.98 191.118C193.428 191.118 193.791 191.481 193.791 191.929V192.065C193.791 193.41 195.217 194.276 196.41 193.656C196.808 193.449 197.297 193.604 197.504 194.001C197.711 194.399 197.556 194.889 197.158 195.095L194.869 196.285C194.207 196.629 193.791 197.314 193.791 198.06V200.04C193.791 200.488 193.428 200.851 192.98 200.851C192.532 200.851 192.169 200.487 192.169 200.04C192.169 198.969 191.034 198.28 190.084 198.774L189.955 198.84C189.558 199.047 189.068 198.893 188.861 198.496C188.655 198.098 188.81 197.609 189.207 197.402L191.092 196.421C191.754 196.077 192.169 195.393 192.169 194.647V191.929C192.169 191.481 192.532 191.118 192.98 191.118Z" fill="black"/>
<path d="M158.594 163.455L157.919 173.496C157.692 176.876 153.629 178.461 151.173 176.128L136 161.716L138.231 149.265C138.811 146.029 142.829 144.835 145.082 147.229L157.516 160.446C158.278 161.256 158.668 162.346 158.594 163.455Z" fill="white" stroke="black" stroke-width="4"/>
</g>
<rect x="40" y="4" width="51.1719" height="30" rx="3" fill="white"/>
<rect x="40.5" y="4.5" width="50.1719" height="29" rx="2.5" stroke="black" stroke-opacity="0.2"/>
<path d="M51.3438 16C51.2969 15.6042 51.1068 15.2969 50.7734 15.0781C50.4401 14.8594 50.0313 14.75 49.5469 14.75C49.1927 14.75 48.8828 14.8073 48.6172 14.9219C48.3542 15.0365 48.1484 15.194 48 15.3945C47.8542 15.5951 47.7813 15.8229 47.7813 16.0781C47.7813 16.2917 47.832 16.4753 47.9336 16.6289C48.0378 16.7799 48.1706 16.9062 48.332 17.0078C48.4935 17.1068 48.6628 17.1888 48.8398 17.2539C49.0169 17.3164 49.1797 17.3672 49.3281 17.4062L50.1406 17.625C50.349 17.6797 50.5807 17.7552 50.8359 17.8516C51.0938 17.9479 51.3398 18.0794 51.5742 18.2461C51.8112 18.4102 52.0065 18.6211 52.1602 18.8789C52.3138 19.1367 52.3906 19.4531 52.3906 19.8281C52.3906 20.2604 52.2773 20.651 52.0508 21C51.8268 21.349 51.4987 21.6263 51.0664 21.832C50.6367 22.0378 50.1146 22.1406 49.5 22.1406C48.9271 22.1406 48.431 22.0482 48.0117 21.8633C47.5951 21.6784 47.2669 21.4206 47.0273 21.0898C46.7904 20.7591 46.6563 20.375 46.625 19.9375H47.625C47.651 20.2396 47.7526 20.4896 47.9297 20.6875C48.1094 20.8828 48.3359 21.0286 48.6094 21.125C48.8854 21.2187 49.1823 21.2656 49.5 21.2656C49.8698 21.2656 50.2018 21.2057 50.4961 21.0859C50.7904 20.9635 51.0234 20.7943 51.1953 20.5781C51.3672 20.3594 51.4531 20.1042 51.4531 19.8125C51.4531 19.5469 51.3789 19.3307 51.2305 19.1641C51.082 18.9974 50.8867 18.862 50.6445 18.7578C50.4023 18.6536 50.1406 18.5625 49.8594 18.4844L48.875 18.2031C48.25 18.0234 47.7552 17.7669 47.3906 17.4336C47.026 17.1003 46.8438 16.6641 46.8438 16.125C46.8438 15.6771 46.9648 15.2865 47.207 14.9531C47.4518 14.6172 47.7799 14.3568 48.1914 14.1719C48.6055 13.9844 49.0677 13.8906 49.5781 13.8906C50.0938 13.8906 50.5521 13.9831 50.9531 14.168C51.3542 14.3503 51.6719 14.6003 51.9062 14.918C52.1432 15.2357 52.2682 15.5964 52.2813 16H51.3438ZM56.374 22.125C55.7959 22.125 55.2972 21.9974 54.8779 21.7422C54.4613 21.4844 54.1396 21.125 53.9131 20.6641C53.6891 20.2005 53.5771 19.6615 53.5771 19.0469C53.5771 18.4323 53.6891 17.8906 53.9131 17.4219C54.1396 16.9505 54.4548 16.5833 54.8584 16.3203C55.2646 16.0547 55.7386 15.9219 56.2803 15.9219C56.5928 15.9219 56.9014 15.974 57.2061 16.0781C57.5107 16.1823 57.7881 16.3516 58.0381 16.5859C58.2881 16.8177 58.4873 17.125 58.6357 17.5078C58.7842 17.8906 58.8584 18.362 58.8584 18.9219V19.3125H54.2334V18.5156H57.9209C57.9209 18.1771 57.8532 17.875 57.7178 17.6094C57.585 17.3437 57.3949 17.1341 57.1475 16.9805C56.9027 16.8268 56.6136 16.75 56.2803 16.75C55.9131 16.75 55.5954 16.8411 55.3271 17.0234C55.0615 17.2031 54.8571 17.4375 54.7139 17.7266C54.5706 18.0156 54.499 18.3255 54.499 18.6562V19.1875C54.499 19.6406 54.5771 20.0247 54.7334 20.3398C54.8923 20.6523 55.1123 20.8906 55.3936 21.0547C55.6748 21.2161 56.0016 21.2969 56.374 21.2969C56.6162 21.2969 56.835 21.263 57.0303 21.1953C57.2282 21.125 57.3988 21.0208 57.542 20.8828C57.6852 20.7422 57.7959 20.5677 57.874 20.3594L58.7646 20.6094C58.6709 20.9115 58.5133 21.1771 58.292 21.4062C58.0706 21.6328 57.7972 21.8099 57.4717 21.9375C57.1462 22.0625 56.7803 22.125 56.374 22.125ZM62.6982 22.125C62.1357 22.125 61.6514 21.9922 61.2451 21.7266C60.8389 21.4609 60.5264 21.0951 60.3076 20.6289C60.0889 20.1628 59.9795 19.6302 59.9795 19.0312C59.9795 18.4219 60.0915 17.8841 60.3154 17.418C60.542 16.9492 60.8571 16.5833 61.2607 16.3203C61.667 16.0547 62.141 15.9219 62.6826 15.9219C63.1045 15.9219 63.4847 16 63.8232 16.1562C64.1618 16.3125 64.4391 16.5312 64.6553 16.8125C64.8714 17.0937 65.0055 17.4219 65.0576 17.7969H64.1357C64.0654 17.5234 63.9092 17.2812 63.667 17.0703C63.4274 16.8568 63.1045 16.75 62.6982 16.75C62.3389 16.75 62.0238 16.8437 61.7529 17.0312C61.4847 17.2161 61.2751 17.4779 61.124 17.8164C60.9756 18.1523 60.9014 18.5469 60.9014 19C60.9014 19.4635 60.9743 19.8672 61.1201 20.2109C61.2686 20.5547 61.4769 20.8216 61.7451 21.0117C62.016 21.2018 62.3337 21.2969 62.6982 21.2969C62.9378 21.2969 63.1553 21.2552 63.3506 21.1719C63.5459 21.0885 63.7113 20.9688 63.8467 20.8125C63.9821 20.6562 64.0785 20.4687 64.1357 20.25H65.0576C65.0055 20.6042 64.8766 20.9232 64.6709 21.207C64.4678 21.4883 64.1982 21.7122 63.8623 21.8789C63.529 22.043 63.141 22.125 62.6982 22.125ZM69.0146 16V16.7812H65.9053V16H69.0146ZM66.8115 14.5625H67.7334V20.2812C67.7334 20.5417 67.7712 20.737 67.8467 20.8672C67.9248 20.9948 68.0238 21.0807 68.1436 21.125C68.266 21.1667 68.3949 21.1875 68.5303 21.1875C68.6318 21.1875 68.7152 21.1823 68.7803 21.1719C68.8454 21.1589 68.8975 21.1484 68.9365 21.1406L69.124 21.9687C69.0615 21.9922 68.9743 22.0156 68.8623 22.0391C68.7503 22.0651 68.6084 22.0781 68.4365 22.0781C68.1761 22.0781 67.9209 22.0221 67.6709 21.9102C67.4235 21.7982 67.2178 21.6276 67.0537 21.3984C66.8923 21.1693 66.8115 20.8802 66.8115 20.5312V14.5625ZM70.4014 22V16H71.3232V22H70.4014ZM70.8701 15C70.6904 15 70.5355 14.9388 70.4053 14.8164C70.2777 14.694 70.2139 14.5469 70.2139 14.375C70.2139 14.2031 70.2777 14.056 70.4053 13.9336C70.5355 13.8112 70.6904 13.75 70.8701 13.75C71.0498 13.75 71.2035 13.8112 71.3311 13.9336C71.4613 14.056 71.5264 14.2031 71.5264 14.375C71.5264 14.5469 71.4613 14.694 71.3311 14.8164C71.2035 14.9388 71.0498 15 70.8701 15ZM75.4492 22.125C74.9076 22.125 74.4323 21.9961 74.0234 21.7383C73.6172 21.4805 73.2995 21.1198 73.0703 20.6562C72.8438 20.1927 72.7305 19.651 72.7305 19.0312C72.7305 18.4062 72.8438 17.8607 73.0703 17.3945C73.2995 16.9284 73.6172 16.5664 74.0234 16.3086C74.4323 16.0508 74.9076 15.9219 75.4492 15.9219C75.9909 15.9219 76.4648 16.0508 76.8711 16.3086C77.2799 16.5664 77.5977 16.9284 77.8242 17.3945C78.0534 17.8607 78.168 18.4062 78.168 19.0312C78.168 19.651 78.0534 20.1927 77.8242 20.6562C77.5977 21.1198 77.2799 21.4805 76.8711 21.7383C76.4648 21.9961 75.9909 22.125 75.4492 22.125ZM75.4492 21.2969C75.8607 21.2969 76.1992 21.1914 76.4648 20.9805C76.7305 20.7695 76.9271 20.4922 77.0547 20.1484C77.1823 19.8047 77.2461 19.4323 77.2461 19.0312C77.2461 18.6302 77.1823 18.2565 77.0547 17.9102C76.9271 17.5638 76.7305 17.2839 76.4648 17.0703C76.1992 16.8568 75.8607 16.75 75.4492 16.75C75.0378 16.75 74.6992 16.8568 74.4336 17.0703C74.168 17.2839 73.9714 17.5638 73.8438 17.9102C73.7161 18.2565 73.6523 18.6302 73.6523 19.0312C73.6523 19.4323 73.7161 19.8047 73.8438 20.1484C73.9714 20.4922 74.168 20.7695 74.4336 20.9805C74.6992 21.1914 75.0378 21.2969 75.4492 21.2969ZM80.4971 18.3906V22H79.5752V16H80.4658V16.9375H80.5439C80.6846 16.6328 80.8981 16.388 81.1846 16.2031C81.471 16.0156 81.8408 15.9219 82.2939 15.9219C82.7002 15.9219 83.0557 16.0052 83.3604 16.1719C83.665 16.3359 83.902 16.5859 84.0713 16.9219C84.2406 17.2552 84.3252 17.6771 84.3252 18.1875V22H83.4033V18.25C83.4033 17.7786 83.2809 17.4115 83.0361 17.1484C82.7913 16.8828 82.4554 16.75 82.0283 16.75C81.734 16.75 81.471 16.8138 81.2393 16.9414C81.0101 17.069 80.8291 17.2552 80.6963 17.5C80.5635 17.7448 80.4971 18.0417 80.4971 18.3906Z" fill="black"/>
</svg>
